<?xml version="1.0" encoding="UTF-8"?>
<svg id="Layer_2" data-name="Layer 2" xmlns="http://www.w3.org/2000/svg" viewBox="0 0 660.09 65.2">
  <defs>
    <style>
      .cls-1 {
        fill: #0097dc;
      }

      .cls-1, .cls-2 {
        stroke-width: 0px;
      }

      .cls-2 {
        fill: #fff;
      }
    </style>
  </defs>
  <g id="Layer_1-2" data-name="Layer 1">
    <g>
      <path class="cls-2" d="M15.81,41.26c0,4.37-3.53,7.92-7.9,7.92s-7.9-3.55-7.9-7.92,3.53-7.88,7.9-7.88,7.9,3.53,7.9,7.88"/>
      <path class="cls-2" d="M37.65,41.26c0,4.37-3.55,7.92-7.91,7.92s-7.9-3.55-7.9-7.92,3.54-7.88,7.9-7.88,7.91,3.53,7.91,7.88"/>
      <path class="cls-2" d="M37.65,10.25c0,4.36-3.55,7.9-7.91,7.9s-7.9-3.54-7.9-7.9,3.54-7.9,7.9-7.9,7.91,3.55,7.91,7.9"/>
      <path class="cls-1" d="M59.5,10.25c0,4.36-3.54,7.9-7.91,7.9s-7.89-3.54-7.89-7.9,3.54-7.9,7.89-7.9,7.91,3.55,7.91,7.9"/>
      <path class="cls-2" d="M117.03,53.18v-22.4c0-1.68-.14-3.06-.4-4.15-.26-1.09-.71-1.94-1.34-2.56-.63-.62-1.5-1.04-2.62-1.26s-2.49-.33-4.14-.33h-21.55v30.71h-10.82V0h10.82v12.98h21.84c3.68,0,6.74.31,9.18.93,2.45.62,4.39,1.6,5.84,2.96,1.45,1.36,2.48,3.15,3.09,5.38.61,2.23.91,4.95.91,8.16v22.77h-10.81Z"/>
      <path class="cls-2" d="M146.64,37.16v1.85c0,1.24.09,2.23.29,2.97s.54,1.32,1.05,1.75c.51.42,1.19.7,2.03.85.85.15,1.9.22,3.16.22h12.77v8.38h-12.77c-6.24,0-10.69-1.22-13.35-3.64-2.66-2.42-3.99-6.3-3.99-11.65v-9.27c0-2.92.28-5.38.83-7.38.56-2,1.52-3.61,2.9-4.82,1.38-1.21,3.21-2.09,5.48-2.63,2.28-.55,5.15-.82,8.63-.82h19.01c2.81,0,5.14.27,7,.82,1.86.54,3.34,1.29,4.43,2.25,1.09.97,1.85,2.13,2.28,3.49.44,1.36.65,2.83.65,4.41v13.21h-40.42ZM176.24,24.84c0-1.34-.33-2.23-.98-2.66-.65-.45-1.8-.68-3.44-.68h-18c-1.36,0-2.49.07-3.41.19-.92.13-1.66.4-2.21.86-.56.44-.96,1.09-1.2,1.93-.25.84-.37,1.98-.37,3.41v2.15h29.61v-5.19Z"/>
      <path class="cls-2" d="M194.89,53.18V0h11.03v53.18h-11.03Z"/>
      <path class="cls-2" d="M214.48,53.18V0h11.03v53.18h-11.03Z"/>
      <path class="cls-2" d="M252.58,53.18c-3.63,0-6.65-.31-9.07-.93-2.42-.61-4.36-1.6-5.81-2.96-1.45-1.36-2.48-3.14-3.08-5.34-.61-2.19-.91-4.91-.91-8.13v-5.41c0-3.21.31-5.93.91-8.16.61-2.23,1.64-4.02,3.08-5.38,1.45-1.36,3.39-2.34,5.81-2.96,2.41-.62,5.44-.93,9.07-.93h13.13c3.68,0,6.73.31,9.15.93,2.41.62,4.35,1.61,5.8,3,1.45,1.38,2.48,3.19,3.08,5.41.61,2.23.91,4.95.91,8.17v5.33c0,3.22-.3,5.93-.91,8.13-.61,2.2-1.63,3.98-3.08,5.34s-3.39,2.35-5.8,2.96c-2.42.62-5.47.93-9.15.93h-13.13ZM273.84,30.78c0-1.68-.13-3.06-.4-4.15-.26-1.09-.75-1.94-1.45-2.56-.7-.62-1.68-1.04-2.94-1.26-1.26-.22-2.85-.33-4.79-.33h-10.23c-1.93,0-3.52.11-4.75.33-1.24.22-2.21.64-2.9,1.26s-1.19,1.48-1.45,2.56c-.26,1.09-.4,2.47-.4,4.15v4.74c0,1.68.13,3.05.4,4.12.26,1.06.75,1.91,1.45,2.53s1.67,1.04,2.9,1.29c1.23.25,2.82.37,4.75.37h10.23c1.93,0,3.53-.12,4.79-.37,1.26-.25,2.24-.68,2.94-1.29.7-.62,1.19-1.46,1.45-2.53.27-1.06.4-2.44.4-4.12v-4.74Z"/>
      <path class="cls-1" d="M329.4,53.18c-3.63,0-6.65-.31-9.07-.93-2.42-.61-4.36-1.6-5.81-2.96-1.45-1.36-2.48-3.14-3.09-5.34-.6-2.19-.91-4.91-.91-8.13v-5.41c0-3.21.31-5.93.91-8.16.61-2.23,1.64-4.02,3.09-5.38,1.45-1.36,3.38-2.34,5.81-2.96,2.42-.62,5.44-.93,9.07-.93h28.45v9.5h-28.09c-1.69,0-3.08.13-4.17.37-1.09.25-1.95.68-2.58,1.3-.63.62-1.06,1.47-1.3,2.56-.24,1.09-.36,2.45-.36,4.08v4.74c0,1.59.12,2.91.36,3.97.24,1.06.68,1.91,1.3,2.55.63.65,1.49,1.11,2.58,1.38,1.09.27,2.48.4,4.17.4h28.16v9.35h-28.52Z"/>
      <path class="cls-1" d="M406.61,53.18v-22.4c0-1.68-.13-3.06-.4-4.15-.27-1.09-.72-1.94-1.35-2.56-.63-.62-1.5-1.04-2.61-1.26s-2.49-.33-4.14-.33h-21.55v30.71h-10.81V0h10.81v12.98h21.85c3.67,0,6.73.31,9.18.93,2.44.62,4.39,1.6,5.84,2.96,1.45,1.36,2.48,3.15,3.08,5.38s.9,4.95.9,8.16v22.77h-10.81Z"/>
      <path class="cls-1" d="M439.19,53.18c-2.86,0-5.2-.25-7.04-.74-1.84-.49-3.3-1.2-4.39-2.11-1.09-.91-1.85-2.02-2.28-3.34-.44-1.31-.65-2.78-.65-4.41v-3.78c0-1.68.2-3.17.62-4.49.4-1.31,1.12-2.42,2.14-3.33,1.02-.92,2.41-1.61,4.17-2.08,1.77-.47,4-.7,6.71-.7h29.1v-.89c0-2.57-.51-4.29-1.52-5.16-1.01-.86-2.73-1.3-5.15-1.3h-10.74v-7.86h10.74c3.14,0,5.82.3,8.01.89,2.2.6,4,1.5,5.41,2.71,1.41,1.22,2.44,2.75,3.09,4.6.65,1.86.97,4.07.97,6.64v9.8c0,2.91-.27,5.36-.83,7.34-.55,1.98-1.52,3.59-2.9,4.82-1.38,1.24-3.21,2.12-5.52,2.64-2.3.52-5.18.78-8.67.78h-21.26ZM467.57,35.01h-27.93c-1.27,0-2.25.28-2.98.85-.72.57-1.09,1.64-1.09,3.23v2.74c0,1.44.39,2.43,1.16,2.97s1.86.81,3.27.81h20.32c1.25,0,2.34-.1,3.26-.3.92-.19,1.68-.55,2.25-1.07.58-.52,1.02-1.25,1.31-2.19.29-.94.43-2.14.43-3.63v-3.41Z"/>
      <path class="cls-1" d="M486.22,53.18v-23.29c0-3.01.34-5.59,1.02-7.71.68-2.13,1.75-3.88,3.23-5.23,1.48-1.36,3.37-2.36,5.7-3.01,2.32-.65,5.15-.97,8.49-.97h7.04v8.97h-6.75c-1.5,0-2.76.13-3.77.37-1.02.25-1.83.67-2.43,1.27-.61.59-1.05,1.41-1.31,2.45-.26,1.04-.4,2.35-.4,3.93v23.22h-10.82Z"/>
      <path class="cls-1" d="M538.18,65.2v-9.05h15.02c1.59,0,2.73-.32,3.41-.96.67-.65,1.02-1.76,1.02-3.35v-3.26h-24.68c-3,0-5.55-.24-7.65-.74-2.11-.49-3.81-1.27-5.11-2.34-1.32-1.06-2.25-2.45-2.83-4.15-.58-1.7-.87-3.76-.87-6.19v-6.16c0-3.07.25-5.62.76-7.67.51-2.05,1.41-3.7,2.69-4.93,1.28-1.24,3.02-2.12,5.22-2.64,2.2-.52,4.97-.78,8.31-.78h17.56c3.24,0,5.96.3,8.16.89,2.21.6,3.97,1.53,5.3,2.82,1.33,1.28,2.28,2.94,2.83,4.97.56,2.02.83,4.47.83,7.34v23.44c0,4.49-1.09,7.75-3.27,9.75-2.17,2-5.73,3.01-10.67,3.01h-16.04ZM557.63,29.22c0-2.67-.51-4.47-1.53-5.41-1.01-.94-2.85-1.41-5.51-1.41h-16.98c-2.52,0-4.24.49-5.16,1.45-.92.97-1.38,2.78-1.38,5.45v5.27c0,1.09.11,1.98.33,2.67.22.69.58,1.25,1.09,1.66.51.42,1.18.7,2,.86.83.15,1.86.22,3.12.22h24.02v-10.76Z"/>
      <path class="cls-1" d="M586.72,37.16v1.85c0,1.24.1,2.23.29,2.97.19.74.54,1.32,1.05,1.75.51.42,1.18.7,2.03.85.84.15,1.9.22,3.16.22h12.77v8.38h-12.77c-6.24,0-10.69-1.22-13.36-3.64-2.66-2.42-3.99-6.3-3.99-11.65v-9.27c0-2.92.27-5.38.83-7.38.56-2,1.52-3.61,2.9-4.82,1.38-1.21,3.2-2.09,5.48-2.63,2.27-.55,5.15-.82,8.63-.82h19.01c2.8,0,5.14.27,7.01.82,1.86.54,3.34,1.29,4.42,2.25,1.09.97,1.85,2.13,2.29,3.49.43,1.36.65,2.83.65,4.41v13.21h-40.42ZM616.33,24.84c0-1.34-.32-2.23-.97-2.66-.66-.45-1.81-.68-3.45-.68h-18c-1.35,0-2.49.07-3.41.19-.91.13-1.66.4-2.21.86-.55.44-.95,1.09-1.2,1.93-.24.84-.36,1.98-.36,3.41v2.15h29.6v-5.19Z"/>
      <path class="cls-1" d="M634.62,53.18v-23.29c0-3.01.34-5.59,1.02-7.71.68-2.13,1.75-3.88,3.23-5.23,1.48-1.36,3.38-2.36,5.7-3.01,2.32-.65,5.16-.97,8.49-.97h7.03v8.97h-6.75c-1.5,0-2.75.13-3.77.37-1.02.25-1.83.67-2.43,1.27-.61.59-1.04,1.41-1.3,2.45-.27,1.04-.4,2.35-.4,3.93v23.22h-10.81Z"/>
    </g>
  </g>
</svg>